<svg width="20" height="20" viewBox="0 0 20 20" fill="none" xmlns="http://www.w3.org/2000/svg">
<path d="M1.66699 1.6665L8.33366 8.33317" stroke="#3D38FF" stroke-width="1.67" stroke-linecap="round" stroke-linejoin="round"/>
<path d="M18.3337 1.6665L11.667 8.33317" stroke="#3D38FF" stroke-width="1.67" stroke-linecap="round" stroke-linejoin="round"/>
<path d="M10.0003 11.6668C14.6027 11.6668 18.3337 9.80135 18.3337 7.50016C18.3337 5.19898 14.6027 3.3335 10.0003 3.3335C5.39795 3.3335 1.66699 5.19898 1.66699 7.50016C1.66699 9.80135 5.39795 11.6668 10.0003 11.6668Z" stroke="#3D38FF" stroke-width="1.67" stroke-linecap="round" stroke-linejoin="round"/>
<path d="M5.83301 11.1665V17.7498" stroke="#3D38FF" stroke-width="1.67" stroke-linecap="round" stroke-linejoin="round"/>
<path d="M10 11.6665V18.3332" stroke="#3D38FF" stroke-width="1.67" stroke-linecap="round" stroke-linejoin="round"/>
<path d="M14.167 11.1665V17.7498" stroke="#3D38FF" stroke-width="1.67" stroke-linecap="round" stroke-linejoin="round"/>
<path d="M1.66699 7.5V14.1667C1.66699 15.2717 2.54497 16.3315 4.10777 17.1129C5.67057 17.8943 7.79019 18.3333 10.0003 18.3333C12.2105 18.3333 14.3301 17.8943 15.8929 17.1129C17.4557 16.3315 18.3337 15.2717 18.3337 14.1667V7.5" stroke="#3D38FF" stroke-width="1.67" stroke-linecap="round" stroke-linejoin="round"/>
</svg>
