<svg width="20" height="20" viewBox="0 0 20 20" fill="none" xmlns="http://www.w3.org/2000/svg">
<path d="M9.21126 0.735L8.71126 1.235C7.37125 0.485 5.77125 0.335 4.34125 0.805L4.26125 0.735C3.29125 -0.245 1.70125 -0.245 0.731255 0.735C-0.238745 1.715 -0.248745 3.295 0.731255 4.265L0.801255 4.345C0.331255 5.775 0.481255 7.375 1.23125 8.715L0.731255 9.215C0.590965 9.35359 0.479581 9.51865 0.40356 9.7006C0.327539 9.88256 0.288394 10.0778 0.288394 10.275C0.288394 10.4722 0.327539 10.6674 0.40356 10.8494C0.479581 11.0314 0.590965 11.1964 0.731255 11.335L2.14125 12.755C2.73125 13.335 3.67125 13.335 4.26125 12.755L4.61125 12.395L11.6913 19.465C12.2713 20.055 13.2213 20.055 13.8113 19.465L19.4613 13.815C20.0513 13.225 20.0513 12.275 19.4613 11.685L12.3913 4.615L12.7513 4.265C13.3313 3.675 13.3313 2.735 12.7513 2.145L11.3313 0.725C11.0487 0.445422 10.6667 0.289438 10.2692 0.291313C9.87168 0.293188 9.49118 0.452768 9.21126 0.735ZM2.18125 4.985C2.26125 4.645 2.40125 4.315 2.59125 4.005L1.79125 3.205C1.68375 3.10374 1.60448 2.97622 1.56125 2.835C1.43125 2.495 1.50125 2.075 1.79125 1.795C2.08125 1.515 2.49126 1.435 2.83125 1.565C2.97126 1.605 3.09125 1.685 3.20125 1.795L4.00126 2.595C4.31125 2.405 4.64125 2.265 4.98126 2.185C5.84126 1.935 6.76125 1.995 7.58125 2.355L2.35125 7.585C1.99125 6.765 1.93125 5.845 2.18125 4.985ZM18.4013 12.755L12.7513 18.405L5.68125 11.335L11.3313 5.685L18.4013 12.755ZM11.6913 3.205L3.20125 11.695L1.79125 10.275L10.2713 1.795L11.6913 3.205ZM12.7513 9.565L9.56126 12.755L8.50126 11.695L11.6913 8.505L12.7513 9.565ZM14.8713 11.695L11.6913 14.875L10.6213 13.815L13.8113 10.625L14.8713 11.695Z" fill="#F6571D"/>
</svg>
