<svg width="18" height="18" viewBox="0 0 18 18" fill="none" xmlns="http://www.w3.org/2000/svg">
<path d="M9 0C13.9706 0 18 4.02945 18 9C18 13.9706 13.9706 18 9 18C4.02944 18 0 13.9706 0 9C1.05658e-05 4.02945 4.02944 0 9 0ZM9.47266 4.98242C9.04519 3.99179 7.58831 4.02378 7.22754 5.07812L6.74121 6.50195L6.69238 6.63184C6.5623 6.95116 6.36497 7.23889 6.11426 7.47559C5.86362 7.71219 5.5654 7.89242 5.23926 8.00391L3.81641 8.49023L3.71973 8.52734C2.72888 8.95425 2.76097 10.412 3.81641 10.7725L5.23926 11.2588L5.36914 11.3076C5.6885 11.4378 5.97621 11.6349 6.21289 11.8857C6.44951 12.1366 6.62982 12.4354 6.74121 12.7617L7.22754 14.1836L7.26465 14.2803C7.69144 15.2707 9.14928 15.2386 9.50977 14.1836L9.99512 12.7607L10.0439 12.6309C10.1741 12.3115 10.3712 12.0228 10.6221 11.7861C10.8728 11.5496 11.1718 11.3702 11.498 11.2588L12.9209 10.7715L13.0176 10.7354C14.0074 10.3077 13.9754 8.8508 12.9209 8.49023L11.498 8.00391L11.3672 7.95508C11.048 7.82502 10.76 7.62854 10.5234 7.37793C10.2868 7.1272 10.1066 6.82823 9.99512 6.50195L9.50879 5.0791L9.47266 4.98242ZM13.1904 3C13.0647 3 12.9421 3.03921 12.8398 3.1123C12.7375 3.1855 12.6608 3.2891 12.6201 3.4082L12.4092 4.02734L11.79 4.23828L11.7197 4.26758C11.6126 4.32005 11.5228 4.40266 11.4629 4.50586C11.403 4.60898 11.3753 4.7277 11.3828 4.84668C11.3904 4.96572 11.4334 5.08008 11.5059 5.1748C11.5784 5.26951 11.6771 5.34147 11.79 5.37988L12.4092 5.59082L12.6201 6.20898L12.6494 6.2793C12.7018 6.38644 12.7846 6.47617 12.8877 6.53613C12.9909 6.5961 13.1104 6.62376 13.2295 6.61621C13.3485 6.60859 13.4629 6.56561 13.5576 6.49316C13.6522 6.42068 13.7233 6.32181 13.7617 6.20898L13.9727 5.58984L14.5908 5.37891L14.6621 5.34961C14.7693 5.29713 14.859 5.21454 14.9189 5.11133C14.9789 5.00809 15.0066 4.88866 14.999 4.76953C14.9913 4.65056 14.9485 4.53606 14.876 4.44141C14.8034 4.34674 14.7038 4.27568 14.5908 4.2373L13.9717 4.02637L13.7607 3.4082L13.7324 3.33789C13.6828 3.2367 13.6054 3.15147 13.5098 3.0918C13.4141 3.03212 13.3032 3 13.1904 3Z" fill="#030813"/>
</svg>
