<svg width="20" height="20" viewBox="0 0 20 20" fill="none" xmlns="http://www.w3.org/2000/svg">
<g clip-path="url(#clip0_540_12537)">
<path d="M8.74984 17.0832L17.0832 8.74984C17.4726 8.36823 17.7824 7.91322 17.9949 7.41111C18.2074 6.90899 18.3182 6.36975 18.3209 5.82454C18.3237 5.27934 18.2183 4.739 18.0109 4.23477C17.8036 3.73054 17.4983 3.27242 17.1128 2.8869C16.7273 2.50137 16.2691 2.1961 15.7649 1.98873C15.2607 1.78136 14.7203 1.67601 14.1751 1.67876C13.6299 1.68152 13.0907 1.79232 12.5886 2.00478C12.0865 2.21723 11.6314 2.52711 11.2498 2.91651L2.91651 11.2498C2.52711 11.6314 2.21723 12.0865 2.00478 12.5886C1.79232 13.0907 1.68152 13.6299 1.67876 14.1751C1.67601 14.7203 1.78136 15.2607 1.98873 15.7649C2.1961 16.2691 2.50137 16.7273 2.8869 17.1128C3.27242 17.4983 3.73054 17.8036 4.23477 18.0109C4.739 18.2183 5.27934 18.3237 5.82454 18.3209C6.36975 18.3182 6.90899 18.2074 7.41111 17.9949C7.91322 17.7824 8.36823 17.4726 8.74984 17.0832Z" stroke="#FFBE02" stroke-width="1.66667" stroke-linecap="round" stroke-linejoin="round"/>
<path d="M7.08301 7.0835L12.9163 12.9168" stroke="#FFBE02" stroke-width="1.66667" stroke-linecap="round" stroke-linejoin="round"/>
</g>
<defs>
<clipPath id="clip0_540_12537">
<rect width="20" height="20" fill="white"/>
</clipPath>
</defs>
</svg>
