<svg width="24" height="24" viewBox="0 0 24 24" fill="none" xmlns="http://www.w3.org/2000/svg">
<path d="M9.58679 5.36784C10.1911 3.59929 12.6348 3.54572 13.3513 5.20716L13.412 5.36886L14.2275 7.75388C14.4144 8.30086 14.7165 8.80138 15.1132 9.22171C15.51 9.64203 15.9924 9.97237 16.5277 10.1905L16.747 10.2723L19.132 11.0869C20.9006 11.6912 20.9541 14.1348 19.2937 14.8514L19.132 14.912L16.747 15.7276C16.1998 15.9143 15.6991 16.2163 15.2786 16.6131C14.8581 17.0099 14.5276 17.4923 14.3094 18.0277L14.2275 18.246L13.413 20.632C12.8086 22.4006 10.365 22.4541 9.64944 20.7937L9.58679 20.632L8.77223 18.247C8.58545 17.6998 8.28347 17.1991 7.88668 16.7786C7.48988 16.3581 7.0075 16.0276 6.47208 15.8094L6.25379 15.7276L3.86875 14.913C2.09917 14.3087 2.04561 11.865 3.70705 11.1495L3.86875 11.0869L6.25379 10.2723C6.80077 10.0854 7.3013 9.78337 7.72163 9.38658C8.14195 8.9898 8.4723 8.50748 8.69037 7.97217L8.77223 7.75388L9.58679 5.36784Z" fill="#3D38FF"/>
<path d="M18.8623 2.45595C19.0637 1.86643 19.8783 1.84857 20.1171 2.40239L20.1373 2.45629L20.4092 3.25129C20.4715 3.43362 20.5722 3.60046 20.7044 3.74057C20.8367 3.88068 20.9975 3.99079 21.1759 4.06348L21.249 4.09077L22.044 4.36229C22.6335 4.56373 22.6514 5.37828 22.0979 5.61712L22.044 5.63733L21.249 5.90918C21.0666 5.97144 20.8997 6.0721 20.7595 6.20437C20.6194 6.33663 20.5092 6.49743 20.4365 6.6759L20.4092 6.74866L20.1377 7.54401C19.9362 8.13352 19.1217 8.15138 18.8831 7.5979L18.8623 7.54401L18.5907 6.749C18.5285 6.56661 18.4278 6.3997 18.2956 6.25953C18.1633 6.11937 18.0025 6.0092 17.824 5.93647L17.7513 5.90918L16.9562 5.63767C16.3664 5.43622 16.3485 4.62167 16.9024 4.38317L16.9562 4.36229L17.7513 4.09077C17.9336 4.02847 18.1004 3.92779 18.2405 3.79553C18.3807 3.66327 18.4908 3.50249 18.5635 3.32406L18.5907 3.25129L18.8623 2.45595Z" fill="#3D38FF"/>
</svg>
