<svg width="24" height="24" viewBox="0 0 24 24" fill="none" xmlns="http://www.w3.org/2000/svg">
<path d="M11.3606 2C11.1506 2 10.8706 2.12 10.5706 2.32C10.0006 2.7 8.85059 3.9 8.40059 5.1C8.06059 6 8.05059 6.82 8.19059 7.43C7.63059 7.53 7.22059 7.71 7.06059 7.78C6.55059 8 5.47059 8.96 5.37059 10.45C5.34059 10.97 5.41059 11.5 5.57059 12C4.91059 12.19 4.53059 12.43 4.50059 12.44C4.18059 12.56 3.65059 12.93 3.50059 13.13C3.15059 13.53 2.92059 14 2.79059 14.5C2.50059 15.59 2.60059 16.83 3.13059 17.83C3.42059 18.39 3.82059 19 4.26059 19.43C5.70059 20.91 8.18059 21.47 10.1406 21.79C12.5306 22.19 15.0306 22.05 17.2606 21.13C20.6106 19.74 21.5006 17.5 21.6406 16.89C21.9306 15.5 21.5706 14.19 21.4206 13.87C21.2006 13.41 20.8406 12.94 20.2506 12.64C19.8506 12.39 19.5006 12.26 19.2406 12.2C19.5006 11.25 19.1306 10.5 18.6206 9.94C17.8506 9.12 17.0606 9 17.0606 9C17.3206 8.5 17.4206 7.9 17.2806 7.32C17.1206 6.61 16.7306 6.16 16.2206 5.86C15.7006 5.55 15.0606 5.4 14.4006 5.28C14.0806 5.22 12.7506 5.03 12.2006 4.27C11.7506 3.65 11.62 2.83 11.5 2.5C11.45 2.37 11.5 2.5 11.3606 2Z" stroke="#3C38FF" stroke-width="2"/>
</svg>
