<svg width="24" height="24" viewBox="0 0 24 24" fill="none" xmlns="http://www.w3.org/2000/svg">
<path d="M15.75 19.1305C14.92 19.1305 14.25 18.2905 14.25 17.2505C14.25 16.2205 14.92 15.3805 15.75 15.3805C16.58 15.3805 17.25 16.2205 17.25 17.2505C17.25 18.2905 16.58 19.1305 15.75 19.1305ZM12 11.2505C10.76 11.2505 9.75001 10.4105 9.75001 9.38048C9.75001 8.34048 10.76 7.50048 12 7.50048C13.24 7.50048 14.25 8.34048 14.25 9.38048C14.25 10.4105 13.24 11.2505 12 11.2505ZM8.25001 19.1305C7.42001 19.1305 6.75001 18.2905 6.75001 17.2505C6.75001 16.2205 7.42001 15.3805 8.25001 15.3805C9.08001 15.3805 9.75001 16.2205 9.75001 17.2505C9.75001 18.2905 9.08001 19.1305 8.25001 19.1305ZM12 8.25048C12.41 8.25048 12.75 8.59048 12.75 9.00048C12.75 9.41048 12.41 9.75048 12 9.75048C11.59 9.75048 11.25 9.41048 11.25 9.00048C11.25 8.59048 11.59 8.25048 12 8.25048ZM18.75 12.0005C18.43 12.0005 18.12 12.0705 17.84 12.2005C17.36 11.5905 16.71 11.0705 15.93 10.6705C16.5 9.87048 16.84 8.90048 16.84 7.85048V7.79048C17.93 7.56048 18.75 6.59048 18.75 5.42048C18.75 4.09048 17.66 3.00048 16.33 3.00048C15.64 3.00048 15 3.29048 14.58 3.75048C13.8088 3.26032 12.9138 3 12 3C11.0862 3 10.1913 3.26032 9.42001 3.75048C9.00001 3.29048 8.36001 3.00048 7.67001 3.00048C6.34001 3.00048 5.25001 4.09048 5.25001 5.42048C5.25001 6.58048 6.07001 7.55048 7.15001 7.79048V7.85048C7.15001 8.90048 7.50001 9.88048 8.06001 10.6705C7.29001 11.0705 6.64001 11.5905 6.16001 12.2005C5.81828 12.0465 5.44338 11.9808 5.06965 12.0093C4.69593 12.0378 4.33534 12.1596 4.0209 12.3636C3.70646 12.5676 3.44824 12.8472 3.26988 13.1769C3.09152 13.5065 2.99873 13.8757 3.00001 14.2505C3.00001 15.5005 4.00001 16.5005 5.25001 16.5005H5.31001C5.27001 16.7405 5.25001 17.0005 5.25001 17.2505C5.25001 19.3205 6.59001 21.0005 8.25001 21.0005C9.26001 21.0005 10.15 20.3705 10.7 19.4105C11.12 19.4705 11.55 19.5005 12 19.5005C12.45 19.5005 12.88 19.4705 13.3 19.4105C13.85 20.3705 14.74 21.0005 15.75 21.0005C17.41 21.0005 18.75 19.3205 18.75 17.2505C18.75 17.0005 18.73 16.7405 18.69 16.5005H18.75C20 16.5005 21 15.5005 21 14.2505C21 13.0005 20 12.0005 18.75 12.0005Z" fill="#DAD9E3"/>
</svg>
