<svg width="29" height="24" viewBox="0 0 29 24" fill="none" xmlns="http://www.w3.org/2000/svg">
<path d="M1 5.9842C1 5.11615 1 4.68145 1.0675 4.31965C1.21566 3.51129 1.60624 2.76713 2.18736 2.18601C2.76848 1.60489 3.51264 1.21431 4.321 1.06615C4.6801 1 5.1148 1 5.98285 1H23.0144C23.8825 1 24.3172 1 24.679 1.0675C25.4874 1.21566 26.2315 1.60624 26.8126 2.18736C27.3938 2.76848 27.7843 3.51264 27.9325 4.321C27.9987 4.68145 27.9987 5.11615 27.9987 5.9842V9.1C27.9987 16.556 21.9547 22.6 14.4986 22.6C7.0426 22.6 1 16.556 1 9.1V5.9842Z" stroke="#ACBC36" stroke-width="2" stroke-linejoin="round"/>
<path d="M22.6 6.3999H28M1 6.3999H6.4M17.875 21.9249V20.5749C17.875 18.0686 18.8706 15.665 20.6428 13.8927C22.4151 12.1205 24.8187 11.1249 27.325 11.1249M11.125 21.9249V20.5749C11.125 18.0686 10.1294 15.665 8.35716 13.8927C6.58494 12.1205 4.1813 11.1249 1.675 11.1249" stroke="#ACBC36" stroke-width="2" stroke-linecap="round" stroke-linejoin="round"/>
</svg>
