<svg width="20" height="20" viewBox="0 0 20 20" fill="none" xmlns="http://www.w3.org/2000/svg">
<g clip-path="url(#clip0_540_12550)">
<path d="M17.7498 12.7498C17.9363 12.9356 18.0842 13.1564 18.1852 13.3995C18.2861 13.6426 18.3381 13.9033 18.3381 14.1665C18.3381 14.4297 18.2861 14.6904 18.1852 14.9335C18.0842 15.1766 17.9363 15.3974 17.7498 15.5832L15.5832 17.7498C15.3974 17.9363 15.1766 18.0842 14.9335 18.1852C14.6904 18.2861 14.4297 18.3381 14.1665 18.3381C13.9033 18.3381 13.6426 18.2861 13.3995 18.1852C13.1564 18.0842 12.9356 17.9363 12.7498 17.7498L2.24984 7.24983C1.8753 6.87348 1.66504 6.36413 1.66504 5.83317C1.66504 5.30221 1.8753 4.79285 2.24984 4.4165L4.4165 2.24984C4.79285 1.8753 5.30221 1.66504 5.83317 1.66504C6.36413 1.66504 6.87348 1.8753 7.24983 2.24984L17.7498 12.7498Z" stroke="#22E3CA" stroke-width="1.66667" stroke-linecap="round" stroke-linejoin="round"/>
<path d="M12.083 10.4167L13.7497 8.75" stroke="#22E3CA" stroke-width="1.66667" stroke-linecap="round" stroke-linejoin="round"/>
<path d="M9.58301 7.91667L11.2497 6.25" stroke="#22E3CA" stroke-width="1.66667" stroke-linecap="round" stroke-linejoin="round"/>
<path d="M7.08301 5.41667L8.74967 3.75" stroke="#22E3CA" stroke-width="1.66667" stroke-linecap="round" stroke-linejoin="round"/>
<path d="M14.583 12.9167L16.2497 11.25" stroke="#22E3CA" stroke-width="1.66667" stroke-linecap="round" stroke-linejoin="round"/>
</g>
<defs>
<clipPath id="clip0_540_12550">
<rect width="20" height="20" fill="white"/>
</clipPath>
</defs>
</svg>
