<svg width="22" height="22" viewBox="0 0 22 22" fill="none" xmlns="http://www.w3.org/2000/svg">
<path d="M20.8322 11.366C20.728 13.2964 20.0669 15.1553 18.9287 16.7179C17.7906 18.2806 16.2242 19.4801 14.4189 20.1716C12.6136 20.863 10.6467 21.0167 8.75588 20.6141C6.86508 20.2115 5.13137 19.2698 3.76433 17.9029C2.39729 16.536 1.45544 14.8024 1.05264 12.9116C0.649841 11.0209 0.803334 9.05391 1.49457 7.24852C2.1858 5.44313 3.38518 3.87661 4.94771 2.73832C6.51025 1.60004 8.36905 0.938715 10.2994 0.834305C10.7497 0.809843 10.9854 1.34577 10.7464 1.72714C9.94683 3.00642 9.60446 4.51892 9.77516 6.01782C9.94586 7.51672 10.6195 8.91352 11.6863 9.98025C12.753 11.047 14.1498 11.7207 15.6487 11.8914C17.1476 12.0621 18.6601 11.7197 19.9394 10.9201C20.3218 10.6811 20.8567 10.9157 20.8322 11.366Z" stroke="#3C38FF" stroke-width="1.66667" stroke-linecap="round" stroke-linejoin="round"/>
</svg>
