<svg width="17" height="17" viewBox="0 0 17 17" fill="none" xmlns="http://www.w3.org/2000/svg">
<path d="M15.8221 8.72743C15.744 10.1742 15.2485 11.5674 14.3955 12.7386C13.5425 13.9098 12.3685 14.8088 11.0155 15.327C9.6624 15.8453 8.18821 15.9605 6.77108 15.6587C5.35396 15.357 4.05457 14.6512 3.02999 13.6267C2.00541 12.6023 1.29951 11.303 0.997619 9.88586C0.695727 8.46876 0.810768 6.99456 1.32884 5.64145C1.8469 4.28834 2.74582 3.11426 3.91692 2.26113C5.08802 1.408 6.48116 0.912356 7.92794 0.834102C8.26544 0.815769 8.44211 1.21744 8.26294 1.50327C7.66368 2.46206 7.40708 3.59566 7.53502 4.71906C7.66296 5.84246 8.16787 6.88933 8.96737 7.68883C9.76687 8.48833 10.8137 8.99325 11.9371 9.12119C13.0605 9.24912 14.1941 8.99253 15.1529 8.39327C15.4396 8.2141 15.8404 8.38993 15.8221 8.72743Z" stroke="black" stroke-width="1.66667" stroke-linecap="round" stroke-linejoin="round"/>
</svg>
