<svg xmlns="http://www.w3.org/2000/svg" width="390" height="844" viewBox="0 0 390 844">
  <rect width="390" height="844" fill="#FFFFFF"/>
  <text x="195" y="90" text-anchor="middle" font-family="system-ui,sans-serif" font-size="18" font-weight="600" fill="#1C1C1E">Health &amp; Growth</text>
  <text x="195" y="116" text-anchor="middle" font-family="system-ui,sans-serif" font-size="13" fill="#FFBE02" opacity=".7">Emma · 4 months</text>
  <rect x="24" y="148" width="342" height="220" rx="20" fill="#FFF8E1" stroke="#FFE9E8" stroke-width="1"/>
  <text x="48" y="180" font-family="system-ui,sans-serif" font-size="13" font-weight="500" fill="#1C1C1E">Weight, kg</text>
  <text x="330" y="180" text-anchor="end" font-family="system-ui,sans-serif" font-size="11" fill="#C7C7CC">0–12 months</text>
  <line x1="48" y1="220" x2="340" y2="220" stroke="#F2F2F7" stroke-width="1"/>
  <line x1="48" y1="260" x2="340" y2="260" stroke="#F2F2F7" stroke-width="1"/>
  <line x1="48" y1="300" x2="340" y2="300" stroke="#F2F2F7" stroke-width="1"/>
  <polyline fill="none" stroke="#FFBE02" stroke-width="2.5" stroke-linecap="round" stroke-linejoin="round" points="48,320 90,310 130,295 170,278 210,262 250,248 290,238 330,228"/>
  <defs><linearGradient id="hF" x1="0" y1="0" x2="0" y2="1"><stop offset="0%" stop-color="#FFBE02" stop-opacity=".3"/><stop offset="100%" stop-color="#FFBE02" stop-opacity="0"/></linearGradient></defs>
  <path d="M48,320 L90,310 130,295 170,278 210,262 250,248 290,238 330,228 L330,340 L48,340Z" fill="url(#hF)"/>
  <circle cx="48" cy="320" r="4" fill="#FFBE02"/>
  <circle cx="170" cy="278" r="4" fill="#FFBE02"/>
  <circle cx="290" cy="238" r="4" fill="#FFBE02"/>
  <rect x="24" y="390" width="108" height="80" rx="14" fill="#FFF8E1" stroke="#FFE9E8" stroke-width="1"/>
  <text x="78" y="422" text-anchor="middle" font-family="system-ui,sans-serif" font-size="22" font-weight="600" fill="#1C1C1E">8.2</text>
  <text x="78" y="444" text-anchor="middle" font-family="system-ui,sans-serif" font-size="11" fill="#8E8E93">kg weight</text>
  <rect x="141" y="390" width="108" height="80" rx="14" fill="#E5F1FA" stroke="#FFE9E8" stroke-width="1"/>
  <text x="195" y="422" text-anchor="middle" font-family="system-ui,sans-serif" font-size="22" font-weight="600" fill="#1C1C1E">71</text>
  <text x="195" y="444" text-anchor="middle" font-family="system-ui,sans-serif" font-size="11" fill="#8E8E93">cm height</text>
  <rect x="258" y="390" width="108" height="80" rx="14" fill="#E8F5E9" stroke="#FFE9E8" stroke-width="1"/>
  <text x="312" y="422" text-anchor="middle" font-family="system-ui,sans-serif" font-size="22" font-weight="600" fill="#1C1C1E">P65</text>
  <text x="312" y="444" text-anchor="middle" font-family="system-ui,sans-serif" font-size="11" fill="#8E8E93">percentile</text>
  <text x="40" y="520" font-family="system-ui,sans-serif" font-size="14" font-weight="500" fill="#1C1C1E">Recent health</text>
  <rect x="24" y="540" width="342" height="1" fill="#F2F2F7"/>
  <circle cx="44" cy="576" r="5" fill="#FFBE02"/>
  <text x="62" y="572" font-family="system-ui,sans-serif" font-size="13" font-weight="500" fill="#1C1C1E">Temperature</text>
  <text x="62" y="590" font-family="system-ui,sans-serif" font-size="11" fill="#8E8E93">36.6°C — normal</text>
  <text x="350" y="580" text-anchor="end" font-family="system-ui,sans-serif" font-size="11" fill="#C7C7CC">2h ago</text>
  <rect x="24" y="608" width="342" height="1" fill="#F2F2F7"/>
  <circle cx="44" cy="644" r="5" fill="#4CAF50"/>
  <text x="62" y="640" font-family="system-ui,sans-serif" font-size="13" font-weight="500" fill="#1C1C1E">Vaccination</text>
  <text x="62" y="658" font-family="system-ui,sans-serif" font-size="11" fill="#8E8E93">DTaP · 2nd dose</text>
  <text x="350" y="648" text-anchor="end" font-family="system-ui,sans-serif" font-size="11" fill="#C7C7CC">Jan 28</text>
</svg>
