<svg xmlns="http://www.w3.org/2000/svg" width="390" height="844" viewBox="0 0 390 844">
  <rect width="390" height="844" rx="0" fill="#FFFFFF"/>
  <rect x="24" y="70" width="342" height="52" rx="14" fill="#F5F5F7"/>
  <text x="195" y="102" text-anchor="middle" font-family="system-ui,sans-serif" font-size="15" font-weight="500" fill="#8E8E93">Today · January 30</text>
  <rect x="24" y="142" width="342" height="88" rx="18" fill="#E8EDFF" stroke="#3C38FF" stroke-width="1" stroke-opacity=".15"/>
  <circle cx="62" cy="186" r="22" fill="#3C38FF" opacity=".12"/>
  <text x="62" y="192" text-anchor="middle" font-family="system-ui,sans-serif" font-size="18" fill="#3C38FF">☽</text>
  <text x="100" y="176" font-family="system-ui,sans-serif" font-size="11" fill="#8E8E93">Sleeping</text>
  <text x="100" y="198" font-family="system-ui,sans-serif" font-size="22" font-weight="600" fill="#1C1C1E">1:23:07</text>
  <rect x="290" y="170" width="56" height="30" rx="8" fill="#3C38FF" opacity=".1"/>
  <text x="318" y="190" text-anchor="middle" font-family="system-ui,sans-serif" font-size="11" font-weight="500" fill="#3C38FF">Stop</text>
  <rect x="24" y="254" width="342" height="1" fill="#F2F2F7"/>
  <circle cx="44" cy="290" r="5" fill="#B51DF6"/>
  <text x="62" y="286" font-family="system-ui,sans-serif" font-size="13" font-weight="500" fill="#1C1C1E">Bottle</text>
  <text x="62" y="304" font-family="system-ui,sans-serif" font-size="11" fill="#8E8E93">120 ml · 12 min</text>
  <text x="350" y="294" text-anchor="end" font-family="system-ui,sans-serif" font-size="11" fill="#C7C7CC">45m</text>
  <rect x="24" y="322" width="342" height="1" fill="#F2F2F7"/>
  <circle cx="44" cy="358" r="5" fill="#4CAF50"/>
  <text x="62" y="354" font-family="system-ui,sans-serif" font-size="13" font-weight="500" fill="#1C1C1E">Diaper</text>
  <text x="62" y="372" font-family="system-ui,sans-serif" font-size="11" fill="#8E8E93">Wet</text>
  <text x="350" y="362" text-anchor="end" font-family="system-ui,sans-serif" font-size="11" fill="#C7C7CC">1h</text>
  <rect x="24" y="390" width="342" height="1" fill="#F2F2F7"/>
  <circle cx="44" cy="426" r="5" fill="#FFBE02"/>
  <text x="62" y="422" font-family="system-ui,sans-serif" font-size="13" font-weight="500" fill="#1C1C1E">Temperature</text>
  <text x="62" y="440" font-family="system-ui,sans-serif" font-size="11" fill="#8E8E93">36.6°C — normal</text>
  <text x="350" y="430" text-anchor="end" font-family="system-ui,sans-serif" font-size="11" fill="#C7C7CC">2h</text>
  <rect x="24" y="458" width="342" height="1" fill="#F2F2F7"/>
  <circle cx="44" cy="494" r="5" fill="#B51DF6"/>
  <text x="62" y="490" font-family="system-ui,sans-serif" font-size="13" font-weight="500" fill="#1C1C1E">Breastfeeding</text>
  <text x="62" y="508" font-family="system-ui,sans-serif" font-size="11" fill="#8E8E93">Left · 18 min</text>
  <text x="350" y="498" text-anchor="end" font-family="system-ui,sans-serif" font-size="11" fill="#C7C7CC">3h</text>
  <circle cx="320" cy="740" r="28" fill="#3C38FF"/>
  <text x="320" y="748" text-anchor="middle" font-family="system-ui,sans-serif" font-size="24" font-weight="300" fill="white">+</text>
  <rect x="0" y="790" width="390" height="54" fill="#FAFAFA"/>
  <rect x="0" y="790" width="390" height="1" fill="#F2F2F7"/>
  <text x="55" y="818" text-anchor="middle" font-family="system-ui,sans-serif" font-size="10" fill="#3C38FF">Sleep</text>
  <text x="145" y="818" text-anchor="middle" font-family="system-ui,sans-serif" font-size="10" fill="#C7C7CC">Feed</text>
  <text x="235" y="818" text-anchor="middle" font-family="system-ui,sans-serif" font-size="10" fill="#C7C7CC">Health</text>
  <text x="335" y="818" text-anchor="middle" font-family="system-ui,sans-serif" font-size="10" fill="#C7C7CC">More</text>
</svg>
