<svg xmlns="http://www.w3.org/2000/svg" width="390" height="844" viewBox="0 0 390 844">
  <rect width="390" height="844" fill="#0E0D2A"/>
  <text x="195" y="90" text-anchor="middle" font-family="system-ui,sans-serif" font-size="18" font-weight="600" fill="#E2E8F0">Sleep Tracking</text>
  <text x="195" y="116" text-anchor="middle" font-family="system-ui,sans-serif" font-size="13" fill="#6366F1" opacity=".6">January 30</text>
  <circle cx="195" cy="240" r="90" fill="none" stroke="#6366F1" stroke-width="4" opacity=".25"/>
  <circle cx="195" cy="240" r="90" fill="none" stroke="#6366F1" stroke-width="4" stroke-dasharray="400 165" stroke-linecap="round" transform="rotate(-90 195 240)"/>
  <text x="195" y="230" text-anchor="middle" font-family="system-ui,sans-serif" font-size="36" font-weight="300" fill="#E2E8F0">1:23:07</text>
  <text x="195" y="258" text-anchor="middle" font-family="system-ui,sans-serif" font-size="13" fill="#6366F1" opacity=".6">Nap in progress</text>
  <rect x="135" y="360" width="120" height="42" rx="21" fill="#6366F1" opacity=".15" stroke="#6366F1" stroke-width="1" stroke-opacity=".3"/>
  <text x="195" y="386" text-anchor="middle" font-family="system-ui,sans-serif" font-size="14" font-weight="500" fill="#A5B4FC">Stop sleep</text>
  <text x="40" y="450" font-family="system-ui,sans-serif" font-size="14" font-weight="500" fill="#E2E8F0">Today's sleep</text>
  <rect x="24" y="470" width="164" height="80" rx="14" fill="none" stroke="#6366F1" stroke-width="1" stroke-opacity=".15"/>
  <text x="48" y="500" font-family="system-ui,sans-serif" font-size="24" font-weight="500" fill="#E2E8F0">14.2h</text>
  <text x="48" y="520" font-family="system-ui,sans-serif" font-size="11" fill="#6366F1" opacity=".5">Total sleep</text>
  <rect x="202" y="470" width="164" height="80" rx="14" fill="none" stroke="#6366F1" stroke-width="1" stroke-opacity=".15"/>
  <text x="226" y="500" font-family="system-ui,sans-serif" font-size="24" font-weight="500" fill="#E2E8F0">3</text>
  <text x="226" y="520" font-family="system-ui,sans-serif" font-size="11" fill="#6366F1" opacity=".5">Naps today</text>
  <text x="40" y="600" font-family="system-ui,sans-serif" font-size="14" font-weight="500" fill="#E2E8F0">Sleep pattern</text>
  <rect x="24" y="620" width="342" height="100" rx="14" fill="#6366F1" fill-opacity=".06"/>
  <line x1="60" y1="640" x2="60" y2="700" stroke="#6366F1" stroke-width="12" stroke-linecap="round" opacity=".7"/>
  <line x1="110" y1="660" x2="110" y2="700" stroke="#6366F1" stroke-width="12" stroke-linecap="round" opacity=".5"/>
  <line x1="160" y1="650" x2="160" y2="700" stroke="#6366F1" stroke-width="12" stroke-linecap="round" opacity=".6"/>
  <line x1="210" y1="638" x2="210" y2="700" stroke="#6366F1" stroke-width="12" stroke-linecap="round" opacity=".8"/>
  <line x1="260" y1="655" x2="260" y2="700" stroke="#6366F1" stroke-width="12" stroke-linecap="round" opacity=".45"/>
  <line x1="310" y1="665" x2="310" y2="700" stroke="#6366F1" stroke-width="12" stroke-linecap="round" opacity=".35"/>
</svg>
